<?xml version="1.0" encoding="UTF-8"?>
<!-- Generator: visioncortex VTracer 0.6.12 -->
<svg version="1.1" xmlns="http://www.w3.org/2000/svg" width="282" height="540">
<path d="M0 0 C93.06 0 186.12 0 282 0 C282 9.57 282 19.14 282 29 C279.69 29 277.38 29 275 29 C274.34 28.34 274.34 28.34 271 25 C266.38 25 261.76 25 257 25 C255.76 27.48 255.87 29.16 255.87 31.94 C255.87 32.43 255.87 32.43 255.86 34.90 C255.87 35.92 255.87 36.95 255.88 38 C255.87 39.02 255.87 40.05 255.86 41.10 C255.86 42.08 255.87 43.06 255.87 44.06 C255.87 44.51 255.87 44.51 255.87 46.79 C256.00 49.00 256.00 49.00 257 51 C265.25 51.33 273.5 51.66 282 52 C282 74.77 282 97.54 282 121 C279.69 121 277.38 121 275 121 C273.68 119.68 272.36 118.36 271 117 C266.38 117 261.76 117 257 117 C255.76 119.48 255.87 121.16 255.87 123.94 C255.87 124.43 255.87 124.43 255.86 126.90 C255.87 127.92 255.87 128.95 255.88 130 C255.87 131.02 255.87 132.05 255.86 133.10 C255.86 134.08 255.87 135.06 255.87 136.06 C255.87 136.51 255.87 136.51 255.87 138.79 C256 141.00 256 141.00 257 143 C265.25 143.33 273.5 143.66 282 144 C282 166.11 282 188.22 282 211 C279.69 211 277.38 211 275 211 C273.68 209.68 272.36 208.36 271 207 C266.38 207 261.76 207 257 207 C255.76 209.48 255.87 211.16 255.87 213.94 C255.87 214.43 255.87 214.43 255.86 216.90 C255.87 217.92 255.87 218.95 255.88 220 C255.87 221.02 255.87 222.05 255.86 223.10 C255.86 224.08 255.87 225.06 255.87 226.06 C255.87 226.51 255.87 226.51 255.87 228.79 C256.00 231.00 256.00 231.00 257 233 C265.25 233.33 273.5 233.66 282 234 C282 256.77 282 279.54 282 303 C279.69 303 277.38 303 275 303 C273.68 301.68 272.36 300.36 271 299 C266.38 299 261.76 299 257 299 C255.76 301.48 255.87 303.16 255.87 305.94 C255.87 306.43 255.87 306.43 255.86 308.90 C255.87 309.92 255.87 310.95 255.88 312 C255.87 313.02 255.87 314.05 255.86 315.10 C255.86 316.08 255.87 317.06 255.87 318.06 C255.87 318.51 255.87 318.51 255.87 320.79 C256 323 256 323 257 325 C265.25 325.33 273.5 325.66 282 326 C282 348.11 282 370.22 282 393 C279.69 393 277.38 393 275 393 C273.68 391.68 272.36 390.36 271 389 C266.38 389 261.76 389 257 389 C255.76 391.48 255.87 393.16 255.87 395.94 C255.87 396.43 255.87 396.43 255.86 398.90 C255.87 399.92 255.87 400.95 255.88 402 C255.87 403.02 255.87 404.05 255.86 405.10 C255.86 406.08 255.87 407.06 255.87 408.06 C255.87 408.51 255.87 408.51 255.87 410.79 C256.00 413.00 256.00 413.00 257 415 C265.25 415.33 273.5 415.66 282 416 C282 438.77 282 461.54 282 485 C279.69 485 277.38 485 275 485 C273.68 483.68 272.36 482.36 271 481 C266.71 480.67 262.42 480.34 258 480 C258.66 480.99 259.32 481.98 260 483 C263.3 483 266.6 483 270 483 C270.66 484.65 271.32 486.3 272 488 C275.3 488 278.6 488 282 488 C282 493.61 282 499.22 282 505 C274.41 505 266.82 505 259 505 C258.67 504.67 258.34 504.34 258 504 C258 497.4 258 490.8 258 484 C257.34 484.33 256.68 484.66 256 485 C255.97 488.29 255.95 491.58 255.94 494.88 C255.93 495.81 255.92 496.75 255.91 497.71 C255.91 498.61 255.91 499.51 255.90 500.43 C255.90 501.26 255.89 502.08 255.89 502.94 C256 505.00 256 505.00 257 507 C265.25 507.33 273.5 507.66 282 508 C282 518.56 282 529.12 282 540 C188.94 540 95.88 540 0 540 C0 361.80 0 183.60 0 0 Z M219 28 C219.95 29.15 220.91 30.29 221.88 31.44 C222.41 32.08 222.94 32.71 223.49 33.37 C225 35 225 35 227 36 C225.56 32.63 223.67 30.49 221 28 C220.34 28 219.68 28 219 28 Z M227 36 C227 36.99 227 37.98 227 39 C227.66 39 228.32 39 229 39 C229 38.01 229 37.02 229 36 C228.34 36 227.68 36 227 36 Z M225 40 C224.67 40.66 224.34 41.32 224 42 C224.66 42 225.32 42 226 42 C225.67 41.34 225.34 40.68 225 40 Z M223 42 C222.67 42.66 222.34 43.32 222 44 C222.66 44 223.32 44 224 44 C223.67 43.34 223.34 42.68 223 42 Z M221 44 C220.67 44.49 220.67 44.49 219 47 C219.99 46.67 220.98 46.34 222 46 C221.67 45.34 221.34 44.68 221 44 Z M134.12 91.69 C132 94 132 94 132 97 C129.39 96.06 127.28 95.24 125.14 93.45 C121.40 90.92 117.34 91.49 113 92 C108.79 93.70 106.87 95.88 105 100 C104.81 102.81 104.81 102.81 105 105 C105.66 105.66 106.32 106.32 107 107 C111.75 106.12 111.75 106.12 114 105 C117.67 104.59 119.49 104.69 122.69 106.62 C126.83 110.88 128.31 115.17 129 121 C127.93 120.75 126.85 120.50 125.75 120.25 C116.72 119.17 108.30 123.81 101.31 129.10 C91.65 137.05 83.44 147.39 81 160 C80.79 163.05 80.85 165.94 81 169 C85.24 165.05 87.90 162.13 88.19 156.19 C88.13 155.14 88.06 154.08 88 153 C88.66 153 89.32 153 90 153 C90.99 152.01 91.98 151.02 93 150 C92.07 152.71 91.13 155.42 90.19 158.12 C89.93 158.89 89.67 159.65 89.40 160.43 C86.89 167.62 84.72 172.91 78.56 177.75 C77.62 178.51 76.67 179.27 75.69 180.05 C73.49 181.64 71.47 182.90 69 184 C70 188 70 188 73 190 C75.39 190.29 77.79 190.49 80.19 190.62 C81.46 190.70 82.73 190.77 84.04 190.85 C84.53 190.88 84.53 190.88 87 191 C87.66 189.68 88.32 188.36 89 187 C89.66 187.33 90.32 187.66 91 188 C91.79 191.00 92.04 192.82 91.31 195.88 C90.86 200.44 92.41 202.25 95 206 C98 208 98 208 101.69 208.25 C106.16 208.70 108.39 210.63 111.77 213.43 C115.76 216.24 120.38 217.56 125 219 C124.67 220.65 124.34 222.3 124 224 C123.01 224.33 122.02 224.66 121 225 C120.67 224.34 120.67 224.34 119 221 C116.03 221.99 113.06 222.98 110 224 C109.67 225.32 109.34 226.64 109 228 C114.35 234.16 119.20 237.57 127 240 C127.33 241.32 127.66 242.64 128 244 C130.93 243.37 133.36 242.41 136 241 C136 240.34 136 239.68 136 239 C136.63 238.86 137.26 238.73 137.91 238.59 C144.67 236.89 149.37 234.27 154 229 C155.22 226.78 155.22 226.78 156 225 C155.72 224.90 155.72 224.90 154.32 224.38 C153.96 224.24 153.96 224.24 152.12 223.56 C151.41 223.30 150.69 223.03 149.95 222.75 C148 222 148 222 146 221 C145.34 222.32 144.68 223.64 144 225 C142.68 224.67 141.36 224.34 140 224 C139.67 222.02 139.34 220.04 139 218 C139.64 217.84 140.28 217.68 140.94 217.52 C146.95 215.90 151.20 213.98 156 210 C156.33 209.34 156.66 208.68 157 208 C158.20 207.94 159.39 207.88 160.62 207.81 C165.44 207.23 167.61 205.39 171 202 C172.51 198.98 172.18 196.33 172 193 C171.34 192.01 170.68 191.02 170 190 C170.66 188.35 171.32 186.7 172 185 C172.99 186.65 173.98 188.3 175 190 C177.42 189.91 179.83 189.81 182.25 189.69 C182.93 189.66 183.61 189.64 184.32 189.62 C188.45 189.40 190.98 188.90 194 186 C193.67 184.68 193.34 183.36 193 182 C192.43 181.72 191.87 181.45 191.29 181.16 C190.55 180.80 189.82 180.44 189.06 180.06 C188.33 179.70 187.60 179.34 186.85 178.97 C185 178 185 178 184 177 C183.70 174.73 183.43 172.46 183.19 170.19 C181.24 154.35 175.05 139.66 162.79 129.09 C155.30 123.37 146.29 119.22 136.69 120.25 C135.47 120.50 134.25 120.75 133 121 C137.27 107.10 137.27 107.10 144 103 C149.43 101.61 153.79 101.73 159 104 C159.66 103.34 160.32 102.68 161 102 C160.51 95.69 160.51 95.69 158.31 92.75 C155.68 90.76 152.99 89.40 150 88 C149.01 87.34 148.02 86.68 147 86 C141.30 86 138.26 87.82 134.12 91.69 Z M219 120 C219.95 121.15 220.91 122.29 221.88 123.44 C222.41 124.08 222.94 124.71 223.49 125.37 C225 127 225 127 227 128 C225.56 124.63 223.67 122.49 221 120 C220.34 120 219.68 120 219 120 Z M227 128 C227 128.99 227 129.98 227 131 C227.66 131 228.32 131 229 131 C229 130.01 229 129.02 229 128 C228.34 128 227.68 128 227 128 Z M225 132 C224.67 132.66 224.34 133.32 224 134 C224.66 134 225.32 134 226 134 C225.67 133.34 225.34 132.68 225 132 Z M223 134 C222.67 134.66 222.34 135.32 222 136 C222.66 136 223.32 136 224 136 C223.67 135.34 223.34 134.68 223 134 Z M221 136 C220.67 136.50 220.67 136.50 219 139 C219.99 138.67 220.98 138.34 222 138 C221.67 137.34 221.34 136.68 221 136 Z M77 195 C75.32 198.76 73.85 202.42 72.69 206.38 C69.62 215.58 63.48 221.78 56.49 228.23 C53.22 231.87 51.30 235.50 50.71 240.41 C51.35 246.41 53.38 250.08 58 254 C61.38 255.94 61.38 255.94 64 257 C63.67 257.99 63.34 258.98 63 260 C62.17 260.33 62.17 260.33 58 262 C61.07 265.54 63.60 266.60 68 268 C69.88 269.62 69.88 269.62 71 271 C70.73 274.21 69.96 275.04 67.49 277.22 C66.44 277.97 65.39 278.72 64.31 279.5 C63.28 280.25 62.24 281.01 61.18 281.78 C59.04 283.27 56.87 284.71 54.67 286.09 C52 288 52 288 51 291 C50.50 291.33 50.50 291.33 48 293 C48.85 298.37 49.92 303.68 51 309 C48.36 310.98 45.72 312.96 43 315 C41.88 319.75 41.88 319.75 43 322 C47.61 321.28 51.67 319.69 56 318 C56 319.98 56 321.96 56 324 C57.32 324.33 58.64 324.66 60 325 C64 320.25 64 320.25 64 318 C66.50 319.46 68.89 320.92 71.19 322.69 C73 324 73 324 75 324 C75 323.01 75 322.02 75 321 C73.35 320.34 71.7 319.68 70 319 C70 318.34 70 317.68 70 317 C69.34 316.67 68.68 316.34 68 316 C67.77 315.25 67.54 314.50 67.30 313.73 C64.17 304.28 64.17 304.28 59 301 C53.44 295.94 53.44 295.94 53 292 C57.38 292.51 59.82 295.18 63 298 C63.33 297.84 63.33 297.84 65 297 C65.17 297.65 65.34 298.30 65.52 298.98 C67.35 305.59 68.92 311.12 75.06 314.88 C78.00 316 78.00 316 81 316 C81.16 315.34 81.16 315.34 82 312 C80.68 311.01 79.36 310.02 78 309 C78.64 308.57 79.28 308.13 79.94 307.69 C82 306 82 306 83 303 C83.66 302.67 84.32 302.34 85 302 C85 302.66 85 303.32 85 304 C90.40 302.73 93.06 300.24 96.38 296 C96.82 295.45 97.27 294.91 97.74 294.34 C101 290.30 101 290.30 101 288 C102.26 287.90 103.52 287.79 104.81 287.69 C119.80 285.89 119.80 285.89 125 280.38 C128.17 276.29 129.79 271.99 131 267 C133 268 133 268 133.70 270.01 C136.43 277.42 139.64 282.50 147 286 C150.31 286.62 150.31 286.62 154 287 C155.48 287.18 156.96 287.37 158.44 287.56 C159.61 287.71 160.79 287.85 162 288 C162.26 288.41 162.26 288.41 163.56 290.5 C166.32 294.66 169.66 298.30 173 302 C178.88 301.12 178.88 301.12 180 300 C180.66 301.98 181.32 303.96 182 306 C183.65 306.33 185.3 306.66 187 307 C187.99 305.35 188.98 303.7 190 302 C189.67 300.68 189.34 299.36 189 298 C189.66 298.33 190.32 298.66 191 299 C190.45 302.33 189.95 305.21 188 308 C184.88 309.75 184.88 309.75 182 311 C182.33 312.65 182.66 314.3 183 316 C186.67 315.74 188.67 315.25 191.62 313 C195.50 308.10 198 303.30 198 297 C199.32 297 200.64 297 202 297 C202 296.34 202 295.68 202 295 C204.65 293.92 207.28 292.91 210 292 C209.67 294.31 209.34 296.62 209 299 C208.28 299.23 207.56 299.45 206.81 299.69 C200.30 302.73 198.38 307.22 196.05 313.62 C194.59 316.93 192.76 318.70 190 321 C190.33 321.66 190.66 322.32 191 323 C192.98 321.68 194.96 320.36 197 319 C200.82 320.56 203.19 323.04 206 326 C206.33 325.67 206.66 325.34 207 325 C207 322.36 207 319.72 207 317 C207.66 317.37 208.33 317.75 209.01 318.13 C209.89 318.60 210.78 319.08 211.69 319.56 C212.12 319.80 212.12 319.80 214.32 321.00 C217.38 322.14 218.92 321.93 222 321 C222.66 319.35 223.32 317.7 224 316 C223.28 315.75 222.56 315.50 221.81 315.25 C218.76 313.89 216.59 312.10 214 310 C213.34 310 212.68 310 212 310 C213.33 304.67 214.67 299.33 216 294 C215.53 293.57 215.05 293.13 214.56 292.69 C213 291 213 291 212 288 C209.98 286.47 207.99 285.07 205.88 283.69 C200.96 280.39 196.39 276.99 192 273 C193.48 269.83 194.61 267.61 197.95 266.15 C198.66 265.89 199.38 265.64 200.12 265.38 C200.85 265.11 201.57 264.85 202.32 264.59 C202.60 264.49 202.60 264.49 204 264 C204 263.01 204 262.02 204 261 C202.35 260.34 200.7 259.68 199 259 C198.67 257.68 198.34 256.36 198 255 C198.44 254.97 198.44 254.97 200.69 254.81 C205.85 253.55 208.13 250.30 211 246 C211.30 243.98 211.30 243.98 211.31 241.75 C211.32 241.39 211.32 241.39 211.36 239.55 C210.33 232.29 206.74 228.24 201.56 223.44 C195.18 217.45 191.04 212.31 188.75 203.62 C188.41 202.38 188.08 201.13 187.73 199.85 C187.49 198.91 187.25 197.97 187 197 C186.01 196.67 185.02 196.34 184 196 C184.33 198.31 184.66 200.62 185 203 C182.49 201.74 182.13 200.50 181 198 C180.01 198 179.02 198 178 198 C178.39 206.69 178.83 215.15 180.59 223.68 C181.15 226.85 181.14 229.80 181 233 C180.01 233.33 180.01 233.33 175 235 C174.52 236.27 174.04 237.54 173.56 238.81 C173.30 239.52 173.03 240.23 172.75 240.96 C172.14 242.63 171.56 244.31 171 246 C170.46 245.24 169.91 244.48 169.36 243.70 C168.64 242.71 167.92 241.71 167.19 240.69 C166.48 239.70 165.77 238.72 165.04 237.70 C163.45 235.60 161.93 233.78 160 232 C153.30 233.94 145.74 236.70 141 242 C141.16 242.66 141.16 242.66 142 246 C143.98 245.67 145.96 245.34 148 245 C147.71 246.35 147.42 247.71 147.12 249.06 C146.95 249.89 146.77 250.71 146.59 251.56 C146 254 146 254 144.69 257.62 C143.76 262.16 144.87 263.98 147 268 C145.84 268.16 145.84 268.16 140 269 C134.44 255.37 134.44 255.37 134 249 C134.99 248.67 135.98 248.34 137 248 C137.33 246.35 137.66 244.7 138 243 C137.34 243 136.68 243 136 243 C135.34 244.32 134.68 245.64 134 247 C133.50 247.16 133.50 247.16 131 248 C130.50 247.67 130.50 247.67 128 246 C128.08 246.29 128.08 246.29 128.46 247.73 C130.12 256.35 126.46 261.90 122 269 C120.68 269 119.36 269 118 269 C118.10 268.20 118.19 267.41 118.29 266.59 C118.90 260.77 119.23 256.51 117 251 C116.88 247.62 116.88 247.62 117 245 C118.32 244.34 119.64 243.68 121 243 C120.67 241.35 120.34 239.7 120 238 C118.06 237.19 116.13 236.37 114.19 235.56 C113.65 235.34 113.65 235.34 110.92 234.19 C108.97 233.40 107.00 232.67 105 232 C99.22 236.47 95.47 240.99 93 248 C92.01 248 91.02 248 90 248 C89.95 247.41 89.90 246.82 89.85 246.21 C89.44 241.81 88.95 238.03 87 234 C83 233 83 233 81 234 C80.75 226.70 80.75 226.70 81.94 223.41 C83.41 218.70 83.72 214.03 84.12 209.12 C84.21 208.15 84.30 207.18 84.39 206.17 C84.60 203.78 84.80 201.39 85 199 C83.68 199 82.36 199 81 199 C80.67 200.32 80.34 201.64 80 203 C79.34 202.67 78.68 202.34 78 202 C78 199.69 78 197.38 78 195 C77.67 195 77.34 195 77 195 Z M219 210 C219.95 211.15 220.91 212.29 221.88 213.44 C222.41 214.08 222.94 214.71 223.49 215.37 C225 217 225 217 227 218 C225.56 214.63 223.67 212.49 221 210 C220.34 210 219.68 210 219 210 Z M96 212 C95.16 213.10 94.33 214.20 93.5 215.31 C93.04 215.93 92.57 216.54 92.09 217.18 C91 219 91 219 91 222 C92.44 222.05 93.87 222.09 95.31 222.12 C95.71 222.14 95.71 222.14 97.74 222.20 C100 222 100 222 103 220 C102.67 218.68 102.34 217.36 102 216 C101.01 215.67 100.02 215.34 99 215 C97.31 213.44 97.31 213.44 96 212 Z M166 212 C165.67 212.50 165.67 212.50 164 215 C161.88 216.19 161.88 216.19 160 217 C160.66 218.32 161.32 219.64 162 221 C165.3 221.33 168.6 221.66 172 222 C171.52 217.78 170.83 215.20 168 212 C167.34 212 166.68 212 166 212 Z M227 218 C227 218.99 227 219.98 227 221 C227.66 221 228.32 221 229 221 C229 220.01 229 219.02 229 218 C228.34 218 227.68 218 227 218 Z M225 222 C224.67 222.66 224.34 223.32 224 224 C224.66 224 225.32 224 226 224 C225.67 223.34 225.34 222.68 225 222 Z M223 224 C222.67 224.66 222.34 225.32 222 226 C222.66 226 223.32 226 224 226 C223.67 225.34 223.34 224.68 223 224 Z M221 226 C220.67 226.50 220.67 226.50 219 229 C219.99 228.67 220.98 228.34 222 228 C221.67 227.34 221.34 226.68 221 226 Z M158 228 C158 228.66 158 229.32 158 230 C158.66 229.67 159.32 229.34 160 229 C159.34 228.67 158.68 228.34 158 228 Z M148 291 C148.61 295.34 149.26 299.68 150 304 C148.68 304 147.36 304 146 304 C146.33 305.32 146.66 306.64 147 308 C147.60 308.25 148.20 308.50 148.81 308.75 C151.29 310.16 152.43 311.65 154 314 C155.32 313.34 156.64 312.68 158 312 C158.66 309.03 159.32 306.06 160 303 C159.34 302.67 158.68 302.34 158 302 C157.34 302.33 157.34 302.33 154 304 C153.80 303.31 153.59 302.63 153.38 301.92 C153.11 301.02 152.84 300.12 152.56 299.19 C152.43 298.74 152.43 298.74 151.75 296.48 C151.20 294.65 150.61 292.82 150 291 C149.34 291 148.68 291 148 291 Z M219 302 C219.95 303.15 220.91 304.29 221.88 305.44 C222.41 306.08 222.94 306.71 223.49 307.37 C225 309 225 309 227 310 C225.56 306.63 223.67 304.49 221 302 C220.34 302 219.68 302 219 302 Z M227 310 C227 310.99 227 311.98 227 313 C227.66 313 228.32 313 229 313 C229 312.01 229 311.02 229 310 C228.34 310 227.68 310 227 310 Z M131 314 C130.50 314.77 130.01 315.55 129.50 316.34 C122.21 327.52 115.24 337.26 101.93 341.69 C99.68 342.05 97.54 342.10 95.25 342.06 C94.45 342.05 93.65 342.04 92.83 342.04 C91 342 91 342 87 338 C87.99 337.01 88.98 336.02 90 335 C89.84 334.18 89.84 334.18 89 330 C87.35 330.33 85.7 330.66 84 331 C84 333.31 84 335.62 84 338 C78.39 340.97 72.78 343.94 67 347 C66.67 348.32 66.34 349.64 66 351 C67.01 350.70 68.03 350.40 69.07 350.09 C70.42 349.71 71.77 349.32 73.12 348.94 C73.79 348.74 74.46 348.54 75.14 348.33 C80.74 346.77 84.57 347.19 90 349 C102.84 350.44 112.29 344.20 122.06 336.62 C122.70 336.09 123.34 335.55 124 335 C117.10 345.57 108.03 351.99 96 356 C94.36 356.04 92.71 356.01 91.07 355.96 C90.11 355.94 89.15 355.91 88.16 355.89 C86.14 355.84 84.13 355.77 82.11 355.70 C74.69 355.56 74.69 355.56 70.80 358.01 C70.21 358.67 69.61 359.32 69 360 C69.47 364.27 71.96 366.17 75 369 C75.47 369.56 75.95 370.11 76.44 370.69 C78.70 372.59 81.19 373.19 84 374 C84.66 375.32 85.32 376.64 86 378 C90.62 378.66 95.24 379.32 100 380 C99.69 383.19 99.38 386.38 99.06 389.56 C98.98 390.46 98.89 391.35 98.80 392.28 C98.41 396.16 98.00 400.03 97.44 403.89 C96.66 409.36 96.65 414.61 98 420 C97.67 420.33 97.34 420.66 97 421 C96.82 428.95 97.51 436.72 98.31 444.62 C98.37 445.27 98.37 445.27 98.67 448.52 C99.32 454.95 100.08 460.22 103 466 C103.66 468.51 103.66 468.51 104.06 470.69 C104.64 473.80 105.57 476.19 107 479 C107 479.66 107 480.32 107 481 C105.35 480.67 103.7 480.34 102 480 C102.86 483.79 103.64 485.68 106.56 488.31 C111.31 490.64 115.92 491.89 121.13 490.38 C125.80 488.40 125.80 488.40 127 486 C127.25 481.55 126.99 478.90 125 475 C124.43 472.69 124.00 470.37 123.56 468.02 C123 466 123 466 121 464 C121.01 462.80 121.02 461.61 121.03 460.38 C121.07 455.94 121.09 451.51 121.11 447.07 C121.12 445.16 121.13 443.24 121.15 441.32 C121.18 438.56 121.19 435.80 121.20 433.04 C121.21 432.18 121.22 431.32 121.23 430.44 C121.23 429.64 121.23 428.84 121.23 428.01 C121.23 427.66 121.23 427.66 121.24 425.88 C121 424 121 424 119 421 C119.47 420.36 119.95 419.72 120.43 419.05 C122.48 415.07 122.72 411.55 123.06 407.12 C123.22 405.43 123.37 403.74 123.53 402.05 C123.60 401.21 123.68 400.36 123.76 399.49 C124.12 395.75 124.61 392.03 125.12 388.31 C125.21 387.70 125.21 387.70 125.63 384.61 C125.69 384.18 125.69 384.18 126 382 C126.76 382.01 127.52 382.02 128.30 382.04 C129.29 382.04 130.29 382.05 131.31 382.06 C131.81 382.07 131.81 382.07 134.30 382.10 C137 382 137 382 140 381 C139.97 381.65 139.97 381.65 139.81 384.94 C139.80 390.69 140.80 396.11 141.86 401.73 C142.75 406.46 143.43 411.12 143.79 415.92 C144 418.00 144 418.00 144.50 420.07 C145.18 424.05 145.18 427.96 145.20 431.99 C145.21 432.86 145.21 433.72 145.22 434.61 C145.23 436.43 145.24 438.26 145.24 440.08 C145.25 442.86 145.28 445.63 145.31 448.41 C145.32 450.19 145.32 451.96 145.33 453.74 C145.34 454.57 145.35 455.39 145.37 456.24 C145.35 461.60 144.39 465.20 142 470 C140.09 475.35 138.55 480.25 139 486 C141.39 488.77 143.45 490.07 147 491 C152.98 491.11 157.49 490.12 162 486 C169 476.51 169 476.51 169 472 C165.71 473.13 165.00 473.99 163.25 477.12 C162.84 478.07 162.43 479.02 162 480 C161.01 480.33 160.02 480.66 159 481 C159.68 477.20 160.70 473.65 161.94 470 C162.11 469.49 162.11 469.49 162.96 466.94 C164 464 164 464 165.09 461.62 C166.29 458.15 166.42 454.76 166.56 451.12 C166.74 447.21 166.94 443.39 167.52 439.51 C168.06 435.53 168.15 431.69 168.12 427.69 C168.13 426.97 168.13 426.26 168.14 425.52 C168.13 420.25 168.13 420.25 167 418 C167.33 417.34 167.66 416.68 168 416 C168.52 409.68 167.61 403.58 166.5 397.38 C165.52 391.83 164.82 386.64 165 381 C165.39 380.94 165.39 380.94 167.34 380.66 C175.90 379.04 179.97 376.05 185 369 C185 368.01 185 367.02 185 366 C185.95 365.71 186.90 365.42 187.88 365.12 C191 364 191 364 193 362 C192 358 192 358 189 356 C186.86 355.88 186.86 355.88 184.39 356.05 C168.85 356.79 159.59 354.82 147.38 344.5 C143.69 340.96 141.16 337.62 139 333 C139.46 333.51 139.92 334.02 140.40 334.54 C147.00 341.51 155.05 348.18 165 349 C173.50 348.75 173.50 348.75 177 347 C183.40 347.18 189.76 348.66 196 350 C195.00 346.70 193.42 345.47 190.52 343.86 C189.15 343.14 187.76 342.44 186.38 341.75 C185.67 341.39 184.96 341.02 184.23 340.65 C182.49 339.76 180.75 338.88 179 338 C179 336.02 179 334.04 179 332 C177.68 331.34 176.36 330.68 175 330 C174.05 333.70 174.05 336.30 175 340 C171.20 342.54 167.38 342.87 163 342 C149.66 336.80 142.03 329.47 135 317 C134.84 316.50 134.84 316.50 134 314 C133.01 314 132.02 314 131 314 Z M225 314 C224.67 314.66 224.34 315.32 224 316 C224.66 316 225.32 316 226 316 C225.67 315.34 225.34 314.68 225 314 Z M155 319 C154 320 154 320 153.88 323.31 C154 327 154 327 156 330 C157.98 330 159.96 330 162 330 C162.66 329.34 163.32 328.68 164 328 C163.67 326.35 163.34 324.7 163 323 C161.68 323.33 160.36 323.66 159 324 C158.67 322.68 158.34 321.36 158 320 C157.01 319.67 156.02 319.34 155 319 Z M105 321 C104.01 321.99 103.02 322.98 102 324 C102.33 325.65 102.66 327.3 103 329 C103.66 329.17 103.66 329.17 107 330 C107.99 329.01 108.98 328.02 110 327 C109.67 325.02 109.34 323.04 109 321 C107.68 321 106.36 321 105 321 Z M53 357 C51.68 358.32 50.36 359.64 49 361 C52.3 361 55.6 361 59 361 C59.99 359.68 60.98 358.36 62 357 C59.03 357 56.06 357 53 357 Z M198 357 C199 359 199 359 199 359 Z M201 357 C201.33 357.99 201.66 358.98 202 360 C204.64 360 207.28 360 210 360 C209.67 359.01 209.34 358.02 209 357 C205.95 356.02 204.05 356.02 201 357 Z M61 362 C62 364 62 364 62 364 Z M215 362 C215 362.66 215 363.32 215 364 C216.32 364.33 217.64 364.66 219 365 C218.34 364.01 217.68 363.02 217 362 C216.34 362 215.68 362 215 362 Z M201 368 C199.35 367.67 197.7 367.34 196 367 C192.85 371.58 190.36 375.31 190 381 C189.90 382.28 189.79 383.56 189.69 384.88 C189.78 390.99 192.63 395.43 196.56 399.94 C200.80 403.52 204.20 402.99 209.43 402.64 C213.04 403.14 214.48 404.39 217 407 C218.58 410.45 218.58 410.45 219.81 414.25 C220.03 414.90 220.24 415.55 220.47 416.22 C220.99 417.81 221.50 419.40 222 421 C222.99 420.67 223.98 420.34 225 420 C225.65 417.77 226.29 415.54 226.94 413.31 C227.30 412.07 227.66 410.83 228.03 409.55 C231.12 398.24 230.67 386.37 225.66 375.64 C222.38 370.44 217.89 365.96 212 364 C205.12 363.88 205.12 363.88 201 368 Z M42 365 C32.59 378.51 28.12 390.31 30 407 C30.89 411.48 32.34 415.75 34 420 C35.32 420 36.64 420 38 420 C38.09 419.42 38.17 418.84 38.26 418.24 C39.31 412.41 40.87 409.24 45 405 C48.30 404.36 51.13 404.01 54.5 404.19 C59.94 403.90 62.75 401.39 66.31 397.44 C70.42 391.51 69.55 383.92 69 377 C67.99 373.87 66.81 371.77 65 369 C62 368 62 368 59 369 C58.01 367.68 57.02 366.36 56 365 C51.38 365 46.76 365 42 365 Z M226 444 C225.41 448.38 224.86 452.58 225 457 C224.34 457 223.68 457 223 457 C223 454.36 223 451.72 223 449 C222.67 448.67 222.34 448.34 222 448 C218.7 448 215.4 448 212 448 C211.67 454.93 211.34 461.86 211 469 C210.34 469 209.68 469 209 469 C209 468.01 209 467.02 209 466 C207.35 466 205.7 466 204 466 C204 471.94 204 477.88 204 484 C205.32 484 206.64 484 208 484 C208 485.32 208 486.64 208 488 C209.32 488 210.64 488 212 488 C212 491.3 212 494.6 212 498 C222.56 498 233.12 498 244 498 C244 496.68 244 495.36 244 494 C245.32 494 246.64 494 248 494 C248 490.7 248 487.4 248 484 C249.32 484 250.64 484 252 484 C252.33 481.36 252.66 478.72 253 476 C254.65 475.67 256.3 475.34 258 475 C258 469.39 258 463.78 258 458 C256.02 458 254.04 458 252 458 C251.67 458.99 251.34 459.98 251 461 C250.34 461 249.68 461 249 461 C248.67 456.71 248.34 452.42 248 448 C245.36 448 242.72 448 240 448 C240 451.3 240 454.6 240 458 C238.02 458 236.04 458 234 458 C234 453.38 234 448.76 234 444 C231.36 444 228.72 444 226 444 Z M97 471 C97 472.65 97 474.3 97 476 C97.99 476.99 98.98 477.98 100 479 C100.66 479 101.32 479 102 479 C100.38 473.25 100.38 473.25 97 471 Z " fill="#000000" transform="translate(0,0)"/>
<path d="M0 0 C3.30 0 6.60 0 10 0 C10.99 0.99 11.98 1.98 13 3 C13 3.66 13 4.32 13 5 C16.30 5 19.60 5 23 5 C23 10.61 23 16.22 23 22 C15.41 22 7.82 22 0 22 C-0.33 21.67 -0.66 21.34 -1 21 C-1 1.00 -1 1.00 0 0 Z " fill="#000000" transform="translate(259,27)"/>
<path d="M0 0 C3.30 0 6.60 0 10 0 C10.99 0.99 11.98 1.98 13 3 C13 3.66 13 4.32 13 5 C16.30 5 19.60 5 23 5 C23 10.61 23 16.22 23 22 C15.41 22 7.82 22 0 22 C-0.33 21.67 -0.66 21.34 -1 21 C-1 1 -1 1 0 0 Z " fill="#000000" transform="translate(259,119)"/>
<path d="M0 0 C0.33 0.66 0.66 1.32 1 2 C1.66 2 2.32 2 3 2 C6.75 7.20 9.66 11.69 11 18 C10.01 18 9.02 18 8 18 C3.33 12.22 0 7.71 0 0 Z " fill="#000000" transform="translate(171,155)"/>
<path d="M0 0 C7 1 7 1 13 8 C13 8.66 13 9.32 13 10 C11.68 9.67 10.36 9.34 9 9 C9 8.34 9 7.68 9 7 C8.34 7 7.68 7 7 7 C6.67 9.31 6.34 11.62 6 14 C2.80 15.07 0.34 15.07 -3 15 C-3.66 14.34 -4.32 13.68 -5 13 C-4.67 9.70 -4.34 6.40 -4 3 C-2.68 2.01 -1.36 1.02 0 0 Z M-1 4 C-1 4.99 -1 5.98 -1 7 C-0.34 7 0.32 7 1 7 C1 6.01 1 5.02 1 4 C0.34 4 -0.32 4 -1 4 Z " fill="#000000" transform="translate(147,182)"/>
<path d="M0 0 C1.99 1.39 2.89 2.54 3.46 4.91 C4.22 10.55 4.22 10.55 3 13 C1.52 13.16 1.52 13.16 -6 14 C-8 11 -8 11 -8 7 C-8.83 7.50 -8.83 7.50 -13 10 C-13.33 9.34 -13.66 8.68 -14 8 C-9.96 1.36 -7.78 -0.35 0 0 Z M-3 4 C-3 4.99 -3 5.98 -3 7 C-2.34 7 -1.68 7 -1 7 C-1 6.01 -1 5.02 -1 4 C-1.66 4 -2.32 4 -3 4 Z " fill="#000000" transform="translate(117,183)"/>
<path d="M0 0 C3.30 0 6.60 0 10 0 C10.99 0.99 11.98 1.98 13 3 C13 3.66 13 4.32 13 5 C16.30 5 19.60 5 23 5 C23 10.61 23 16.22 23 22 C15.41 22 7.82 22 0 22 C-0.33 21.67 -0.66 21.34 -1 21 C-1 1 -1 1 0 0 Z " fill="#000000" transform="translate(259,209)"/>
<path d="M0 0 C3.30 0 6.60 0 10 0 C10.99 0.99 11.98 1.98 13 3 C13 3.66 13 4.32 13 5 C16.30 5 19.60 5 23 5 C23 10.61 23 16.22 23 22 C15.41 22 7.82 22 0 22 C-0.33 21.67 -0.66 21.34 -1 21 C-1 1 -1 1 0 0 Z " fill="#000000" transform="translate(259,301)"/>
<path d="M0 0 C3.63 0 7.26 0 11 0 C11.66 1.65 12.32 3.30 13 5 C16.30 5 19.60 5 23 5 C23 10.61 23 16.22 23 22 C15.41 22 7.82 22 0 22 C-0.33 21.67 -0.66 21.34 -1 21 C-1 1 -1 1 0 0 Z " fill="#000000" transform="translate(259,391)"/>
</svg>
